<mxfile host="app.diagrams.net" modified="2023-06-26T14:58:16.557Z" agent="Mozilla/5.0 (Windows NT 10.0; Win64; x64; rv:109.0) Gecko/20100101 Firefox/114.0" etag="XHoxKdzVTGqyxvEM7PP4" version="21.5.0" type="github">
  <diagram name="第 1 页" id="eqzriuL-sAhW4ZtApeQP">
    <mxGraphModel dx="1434" dy="746" grid="1" gridSize="10" guides="1" tooltips="1" connect="1" arrows="1" fold="1" page="1" pageScale="1" pageWidth="827" pageHeight="1169" math="0" shadow="0">
      <root>
        <mxCell id="0" />
        <mxCell id="1" parent="0" />
        <mxCell id="PcTVYHSAwl9tAgi3bwZX-3" value="" style="edgeStyle=orthogonalEdgeStyle;rounded=0;orthogonalLoop=1;jettySize=auto;html=1;" edge="1" parent="1" source="PcTVYHSAwl9tAgi3bwZX-1" target="PcTVYHSAwl9tAgi3bwZX-2">
          <mxGeometry relative="1" as="geometry" />
        </mxCell>
        <mxCell id="PcTVYHSAwl9tAgi3bwZX-1" value="UI" style="rounded=0;whiteSpace=wrap;html=1;" vertex="1" parent="1">
          <mxGeometry x="310" y="120" width="120" height="60" as="geometry" />
        </mxCell>
        <mxCell id="PcTVYHSAwl9tAgi3bwZX-5" value="" style="edgeStyle=orthogonalEdgeStyle;rounded=0;orthogonalLoop=1;jettySize=auto;html=1;" edge="1" parent="1" source="PcTVYHSAwl9tAgi3bwZX-2" target="PcTVYHSAwl9tAgi3bwZX-4">
          <mxGeometry relative="1" as="geometry" />
        </mxCell>
        <mxCell id="PcTVYHSAwl9tAgi3bwZX-12" style="edgeStyle=orthogonalEdgeStyle;rounded=0;orthogonalLoop=1;jettySize=auto;html=1;entryX=0.5;entryY=0;entryDx=0;entryDy=0;" edge="1" parent="1" source="PcTVYHSAwl9tAgi3bwZX-2" target="PcTVYHSAwl9tAgi3bwZX-9">
          <mxGeometry relative="1" as="geometry" />
        </mxCell>
        <mxCell id="PcTVYHSAwl9tAgi3bwZX-2" value="View Model" style="rounded=0;whiteSpace=wrap;html=1;" vertex="1" parent="1">
          <mxGeometry x="310" y="260" width="120" height="60" as="geometry" />
        </mxCell>
        <mxCell id="PcTVYHSAwl9tAgi3bwZX-7" value="" style="edgeStyle=orthogonalEdgeStyle;rounded=0;orthogonalLoop=1;jettySize=auto;html=1;" edge="1" parent="1" source="PcTVYHSAwl9tAgi3bwZX-4" target="PcTVYHSAwl9tAgi3bwZX-6">
          <mxGeometry relative="1" as="geometry" />
        </mxCell>
        <mxCell id="PcTVYHSAwl9tAgi3bwZX-11" style="edgeStyle=orthogonalEdgeStyle;rounded=0;orthogonalLoop=1;jettySize=auto;html=1;entryX=1;entryY=0.5;entryDx=0;entryDy=0;" edge="1" parent="1" source="PcTVYHSAwl9tAgi3bwZX-4" target="PcTVYHSAwl9tAgi3bwZX-9">
          <mxGeometry relative="1" as="geometry" />
        </mxCell>
        <mxCell id="PcTVYHSAwl9tAgi3bwZX-4" value="Service" style="rounded=0;whiteSpace=wrap;html=1;" vertex="1" parent="1">
          <mxGeometry x="310" y="400" width="120" height="60" as="geometry" />
        </mxCell>
        <mxCell id="PcTVYHSAwl9tAgi3bwZX-10" value="" style="edgeStyle=orthogonalEdgeStyle;rounded=0;orthogonalLoop=1;jettySize=auto;html=1;" edge="1" parent="1" source="PcTVYHSAwl9tAgi3bwZX-6" target="PcTVYHSAwl9tAgi3bwZX-9">
          <mxGeometry relative="1" as="geometry" />
        </mxCell>
        <mxCell id="PcTVYHSAwl9tAgi3bwZX-6" value="Repository" style="rounded=0;whiteSpace=wrap;html=1;" vertex="1" parent="1">
          <mxGeometry x="310" y="540" width="120" height="60" as="geometry" />
        </mxCell>
        <mxCell id="PcTVYHSAwl9tAgi3bwZX-9" value="Entity" style="rounded=0;whiteSpace=wrap;html=1;" vertex="1" parent="1">
          <mxGeometry x="100" y="400" width="120" height="60" as="geometry" />
        </mxCell>
      </root>
    </mxGraphModel>
  </diagram>
</mxfile>
